<svg xmlns="http://www.w3.org/2000/svg" viewBox="0 0 513 342"><path fill="#00008B" d="M0 0h513v342H0z"/><path fill="#FFF" d="M0 0v30l113 85h30L0 0zm256.5 0v30L143.5 115h-30L256.5 0zM0 228v-30l113-83h30L0 228zm256.5 0v-30l-113-83h-30l143 113z"/><path fill="#C8102E" d="M108.3 0h40v228h-40zM0 76v40h256.5V76z"/><path fill="#C8102E" d="M0 0v10l103.5 76h20L0 0zm256.5 0v10L153 86h-20l123.5-86zM0 228v-10l103.5-76h20L0 228zm256.5 0v-10L153 142h-20l123.5 86z"/><g fill="#FFF"><path d="M175 275l-7 22 18.5-13.5H168L186.5 297z"/><path d="M350 190l-7 22 18.5-13.5H343L361.5 212z"/><path d="M395 115l-7 22 18.5-13.5H388L406.5 137z"/><path d="M350 60l-7 22 18.5-13.5H343L361.5 82z"/><path d="M440 170l-4 12 10-7.5h-13l10.5 7.5z"/></g></svg>
